<?xml version="1.0" encoding="UTF-8" standalone="no"?>
<!-- Created with Inkscape (http://www.inkscape.org/) -->

<svg
   xmlns:dc="http://purl.org/dc/elements/1.1/"
   xmlns:cc="http://creativecommons.org/ns#"
   xmlns:rdf="http://www.w3.org/1999/02/22-rdf-syntax-ns#"
   xmlns:svg="http://www.w3.org/2000/svg"
   xmlns="http://www.w3.org/2000/svg"
   xmlns:sodipodi="http://sodipodi.sourceforge.net/DTD/sodipodi-0.dtd"
   xmlns:inkscape="http://www.inkscape.org/namespaces/inkscape"
   width="512mm"
   height="512mm"
   viewBox="0 0 512 512"
   version="1.1"
   id="svg573"
   inkscape:version="0.92.3 (2405546, 2018-03-11)"
   sodipodi:docname="bulb.svg">
  <defs
     id="defs567" />
  <sodipodi:namedview
     id="base"
     pagecolor="#ffffff"
     bordercolor="#666666"
     borderopacity="1.0"
     inkscape:pageopacity="0.0"
     inkscape:pageshadow="2"
     inkscape:zoom="0.35"
     inkscape:cx="400"
     inkscape:cy="902.85714"
     inkscape:document-units="mm"
     inkscape:current-layer="layer1"
     showgrid="false"
     inkscape:window-width="1853"
     inkscape:window-height="1025"
     inkscape:window-x="67"
     inkscape:window-y="27"
     inkscape:window-maximized="1" />
  <metadata
     id="metadata570">
    <rdf:RDF>
      <cc:Work
         rdf:about="">
        <dc:format>image/svg+xml</dc:format>
        <dc:type
           rdf:resource="http://purl.org/dc/dcmitype/StillImage" />
        <dc:title></dc:title>
      </cc:Work>
    </rdf:RDF>
  </metadata>
  <g
     inkscape:label="Capa 1"
     inkscape:groupmode="layer"
     id="layer1"
     transform="translate(0,215)">
    <g
       transform="matrix(2.3784466,0,0,-2.3784466,-1914.2324,2156.0377)"
       id="g541">
      <path
         d="m 958.857,869.29 c 5.834,9.126 8.916,19.705 8.916,30.594 0,31.377 -25.527,56.903 -56.906,56.903 -31.377,0 -56.894,-25.526 -56.894,-56.903 0,-21.686 12.074,-41.193 31.495,-50.911 2.709,-1.356 4.438,-4.125 4.438,-7.155 v -0.804 -8.051 h 41 v 8.051 0.45 c 0,3.063 1.886,5.858 4.642,7.196 9.475,4.602 17.624,11.736 23.309,20.63 z m -70.599,33.673 c 1.23,0 2.193,-0.364 2.888,-1.137 0.694,-0.774 1.042,-1.685 1.042,-2.758 0,-1.074 -0.348,-2.086 -1.042,-2.857 -0.695,-0.775 -1.658,-1.248 -2.888,-1.248 h -7.352 v -2 h 9.246 c 1.231,0 2.194,-0.479 2.888,-1.251 0.694,-0.774 1.042,-1.743 1.042,-2.816 0,-1.074 -0.348,-1.998 -1.042,-2.771 -0.694,-0.775 -1.657,-1.162 -2.888,-1.162 h -13.259 c -2.589,0 -3.987,1.267 -3.987,3.888 v 20.457 c 0,2.62 1.398,3.655 3.987,3.655 h 13.259 c 1.231,0 2.194,-0.25 2.888,-1.022 0.694,-0.775 1.042,-1.629 1.042,-2.703 0,-1.073 -0.348,-2.17 -1.042,-2.943 -0.694,-0.774 -1.657,-1.332 -2.888,-1.332 h -9.246 v -2 z m 16.36,-6.204 c 0.268,-0.758 0.679,-1.429 1.232,-2.013 0.552,-0.585 1.23,-0.967 2.036,-1.33 0.805,-0.363 1.743,-0.453 2.817,-0.453 h 2.889 c 0.663,0 1.238,-0.202 1.728,-0.423 0.489,-0.22 0.9,-0.566 1.231,-0.945 0.332,-0.378 0.576,-0.827 0.734,-1.3 0.158,-0.475 0.236,-0.959 0.236,-1.432 0,-1.011 -0.33,-1.904 -0.994,-2.709 -0.662,-0.804 -1.641,-1.191 -2.935,-1.191 h -2.842 c -2.336,0 -4.387,0.381 -6.156,1.187 -1.768,0.804 -3.243,1.842 -4.427,3.137 -1.185,1.295 -2.069,2.774 -2.651,4.445 -0.585,1.674 -0.877,3.392 -0.877,5.161 0,1.8 0.308,3.55 0.924,5.253 0.615,1.706 1.531,3.236 2.746,4.593 1.214,1.358 2.747,2.31 4.593,3.13 1.847,0.82 4.002,1.094 6.464,1.094 h 2.226 c 0.663,0 1.238,0.026 1.728,-0.194 0.489,-0.221 0.9,-0.453 1.231,-0.831 0.332,-0.379 0.584,-0.77 0.758,-1.245 0.173,-0.472 0.26,-0.945 0.26,-1.45 0,-0.505 -0.087,-0.985 -0.26,-1.46 -0.174,-0.472 -0.426,-0.895 -0.758,-1.274 -0.331,-0.378 -0.742,-0.837 -1.231,-1.058 -0.49,-0.221 -1.065,-0.488 -1.728,-0.488 h -2.842 c -1.105,0 -2.059,-0.014 -2.864,-0.361 -0.806,-0.348 -1.484,-0.734 -2.036,-1.318 -0.553,-0.584 -0.964,-1.208 -1.232,-1.948 -0.268,-0.742 -0.402,-1.487 -0.402,-2.276 0,-0.79 0.134,-1.543 0.402,-2.301 z m 24.458,-10.892 c -1.769,0.758 -3.299,1.783 -4.594,3.078 -1.294,1.294 -2.32,2.826 -3.078,4.594 -0.758,1.768 -1.136,3.646 -1.136,5.635 0,1.989 0.378,3.866 1.136,5.635 0.758,1.767 1.784,3.306 3.078,4.617 1.295,1.31 2.825,2.344 4.594,3.101 1.768,0.758 3.647,1.137 5.635,1.137 1.988,0 3.867,-0.379 5.635,-1.137 1.767,-0.757 3.306,-1.791 4.617,-3.101 1.31,-1.311 2.344,-2.85 3.101,-4.617 0.758,-1.769 1.137,-3.646 1.137,-5.635 0,-1.989 -0.379,-3.867 -1.137,-5.635 -0.757,-1.768 -1.791,-3.3 -3.101,-4.594 -1.311,-1.295 -2.85,-2.32 -4.617,-3.078 -1.768,-0.758 -3.647,-1.137 -5.635,-1.137 -1.988,0 -3.867,0.379 -5.635,1.137"
         style="fill:#fcfbc0;fill-opacity:1;fill-rule:nonzero;stroke:none;stroke-width:0.1"
         id="path16"
         inkscape:connector-curvature="0" />
      <path
         d="m 941.34,899.079 c 0,0.915 -0.174,1.776 -0.521,2.581 -0.347,0.805 -0.813,1.499 -1.397,2.083 -0.584,0.584 -1.277,1.05 -2.083,1.398 -0.805,0.347 -1.665,0.52 -2.581,0.52 -0.916,0 -1.768,-0.173 -2.557,-0.52 -0.789,-0.348 -1.484,-0.814 -2.084,-1.398 -0.599,-0.584 -1.064,-1.278 -1.396,-2.083 -0.332,-0.805 -0.498,-1.666 -0.498,-2.581 0,-0.916 0.166,-1.768 0.498,-2.558 0.332,-0.789 0.797,-1.483 1.396,-2.082 0.6,-0.601 1.295,-1.066 2.084,-1.398 0.789,-0.331 1.641,-0.497 2.557,-0.497 0.916,0 1.776,0.166 2.581,0.497 0.806,0.332 1.499,0.797 2.083,1.398 0.584,0.599 1.05,1.293 1.397,2.082 0.347,0.79 0.521,1.642 0.521,2.558"
         style="fill:#fcfbc0;fill-opacity:1;fill-rule:nonzero;stroke:none;stroke-width:0.1"
         id="path18"
         inkscape:connector-curvature="0" />
      <path
         d="m 892.406,808.014 c 3.592,-6 10.102,-10.078 17.545,-10.078 7.444,0 13.953,4.078 17.545,10.078 h -35.09"
         style="fill:#bfbebf;fill-opacity:1;fill-rule:nonzero;stroke:none;stroke-width:0.1"
         id="path20"
         inkscape:connector-curvature="0" />
      <path
         d="m 889.906,818.642 c 0,-0.893 0.075,-1.679 0.186,-2.679 h 40.629 c 0.11,1 0.185,1.786 0.185,2.679 v 6.321 h -41 v -6.321"
         style="fill:#bfbebf;fill-opacity:1;fill-rule:nonzero;stroke:none;stroke-width:0.1"
         id="path22"
         inkscape:connector-curvature="0" />
      <path
         d="m 890.152,904.963 c 1.231,0 2.194,0.594 2.888,1.367 0.694,0.774 1.042,1.801 1.042,2.874 0,1.073 -0.348,1.911 -1.042,2.685 -0.694,0.773 -1.657,1.074 -2.888,1.074 h -13.259 c -2.589,0 -4.487,-1.035 -4.487,-3.655 v -20.457 c 0,-2.621 1.898,-3.888 4.487,-3.888 h 13.259 c 1.231,0 2.194,0.365 2.888,1.139 0.694,0.773 1.042,1.686 1.042,2.759 0,1.074 -0.348,2.082 -1.042,2.856 -0.694,0.773 -1.657,1.246 -2.888,1.246 h -9.246 v 2 h 7.352 c 1.23,0 2.193,0.48 2.888,1.253 0.694,0.773 1.042,1.743 1.042,2.816 0,1.073 -0.348,1.997 -1.042,2.771 -0.695,0.773 -1.658,1.16 -2.888,1.16 h -7.352 v 2 h 9.246"
         style="fill:#7fcc28;fill-opacity:1;fill-rule:nonzero;stroke:none;stroke-width:0.1"
         id="path24"
         inkscape:connector-curvature="0" />
      <path
         d="m 905.85,903.364 c 0.552,0.584 1.23,0.89 2.036,1.238 0.805,0.347 1.759,0.361 2.864,0.361 h 2.842 c 0.663,0 1.238,0.271 1.728,0.491 0.489,0.221 0.9,0.601 1.231,0.98 0.332,0.379 0.584,0.845 0.758,1.318 0.173,0.475 0.26,0.984 0.26,1.488 0,0.505 -0.087,1.004 -0.26,1.479 -0.174,0.472 -0.426,0.903 -0.758,1.282 -0.331,0.379 -0.742,0.544 -1.231,0.765 -0.49,0.22 -1.065,0.197 -1.728,0.197 h -2.226 c -2.462,0 -4.617,-0.274 -6.464,-1.094 -1.846,-0.821 -3.379,-1.842 -4.593,-3.199 -1.215,-1.357 -2.131,-2.854 -2.746,-4.559 -0.616,-1.705 -0.924,-3.439 -0.924,-5.239 0,-1.767 0.292,-3.479 0.877,-5.153 0.582,-1.672 1.466,-3.153 2.651,-4.446 1.184,-1.295 2.659,-2.322 4.427,-3.127 1.769,-0.804 3.82,-1.183 6.156,-1.183 h 2.842 c 1.294,0 2.273,0.381 2.935,1.187 0.664,0.804 0.994,1.701 0.994,2.711 0,0.474 -0.078,0.942 -0.236,1.416 -0.158,0.473 -0.402,0.897 -0.734,1.276 -0.331,0.379 -0.742,0.767 -1.231,0.988 -0.49,0.221 -1.065,0.422 -1.728,0.422 h -2.889 c -1.074,0 -2.012,0.09 -2.817,0.453 -0.806,0.363 -1.484,0.791 -2.036,1.376 -0.553,0.583 -0.964,1.231 -1.232,1.989 -0.268,0.758 -0.402,1.52 -0.402,2.31 0,0.789 0.134,1.548 0.402,2.29 0.268,0.742 0.679,1.399 1.232,1.983"
         style="fill:#7fcc28;fill-opacity:1;fill-rule:nonzero;stroke:none;stroke-width:0.1"
         id="path26"
         inkscape:connector-curvature="0" />
      <path
         d="m 944.963,888.945 c 1.31,1.294 2.344,2.826 3.101,4.594 0.758,1.768 1.137,3.646 1.137,5.635 0,1.989 -0.379,3.866 -1.137,5.635 -0.757,1.767 -1.791,3.306 -3.101,4.617 -1.311,1.31 -2.85,2.344 -4.617,3.101 -1.768,0.758 -3.647,1.137 -5.635,1.137 -1.988,0 -3.867,-0.379 -5.635,-1.137 -1.769,-0.757 -3.299,-1.791 -4.594,-3.101 -1.294,-1.311 -2.32,-2.85 -3.078,-4.617 -0.758,-1.769 -1.136,-3.646 -1.136,-5.635 0,-1.989 0.378,-3.867 1.136,-5.635 0.758,-1.768 1.784,-3.3 3.078,-4.594 1.295,-1.295 2.825,-2.32 4.594,-3.078 1.768,-0.758 3.647,-1.137 5.635,-1.137 1.988,0 3.867,0.379 5.635,1.137 1.767,0.758 3.306,1.783 4.617,3.078 z m -7.624,4.096 c -0.805,-0.331 -1.665,-0.497 -2.581,-0.497 -0.916,0 -1.768,0.166 -2.557,0.497 -0.789,0.332 -1.484,0.797 -2.084,1.398 -0.599,0.599 -1.064,1.293 -1.396,2.082 -0.332,0.79 -0.498,1.642 -0.498,2.558 0,0.915 0.166,1.776 0.498,2.581 0.332,0.805 0.797,1.499 1.396,2.083 0.6,0.584 1.295,1.05 2.084,1.398 0.789,0.347 1.641,0.52 2.557,0.52 0.916,0 1.776,-0.173 2.581,-0.52 0.806,-0.348 1.499,-0.814 2.083,-1.398 0.584,-0.584 1.05,-1.278 1.397,-2.083 0.347,-0.805 0.521,-1.666 0.521,-2.581 0,-0.916 -0.174,-1.768 -0.521,-2.558 -0.347,-0.789 -0.813,-1.483 -1.397,-2.082 -0.584,-0.601 -1.277,-1.066 -2.083,-1.398"
         style="fill:#7fcc28;fill-opacity:1;fill-rule:nonzero;stroke:none;stroke-width:0.1"
         id="path28"
         inkscape:connector-curvature="0" />
      <path
         d="m 910.867,964.787 c -35.844,0 -64.886,-29.059 -64.886,-64.903 0,-25.422 15.425,-47.415 36.425,-58.066 v -8.804 -14.372 c 0,-15.828 12.174,-28.656 28,-28.656 15.824,0 28,12.828 28,28.656 v 14.372 8.45 c 22,10.518 37.231,32.723 37.231,58.42 0,35.844 -28.923,64.903 -64.77,64.903 z m 20.539,-123.323 v -8.501 h -42 v 8.855 c 0,3.03 -1.229,5.799 -3.938,7.155 -19.421,9.718 -31.495,29.225 -31.495,50.911 0,31.377 25.517,56.903 56.894,56.903 31.379,0 56.906,-25.526 56.906,-56.903 0,-10.889 -3.082,-21.468 -8.916,-30.594 -5.685,-8.894 -13.834,-16.028 -23.309,-20.63 -2.756,-1.338 -4.142,-4.133 -4.142,-7.196 z m -21,-43.528 c -7.443,0 -13.953,4.078 -17.545,10.078 h 35.09 c -3.592,-6 -10.101,-10.078 -17.545,-10.078 z m 20.5,20.706 c 0,-0.893 -0.075,-1.679 -0.185,-2.679 h -40.629 c -0.111,1 -0.186,1.786 -0.186,2.679 v 6.372 h 41 v -6.372"
         style="fill:#5d495f;fill-opacity:1;fill-rule:nonzero;stroke:none;stroke-width:0.1"
         id="path30"
         inkscape:connector-curvature="0" />
      <path
         d="m 910.406,969.014 c 2.209,0 4,1.791 4,4 v 13 c 0,2.209 -1.791,4 -4,4 -2.209,0 -4,-1.791 -4,-4 v -13 c 0,-2.209 1.791,-4 4,-4"
         style="fill:#5d495f;fill-opacity:1;fill-rule:nonzero;stroke:none;stroke-width:0.1"
         id="path32"
         inkscape:connector-curvature="0" />
      <path
         d="m 962.623,948.075 c 1.023,0 2.047,0.391 2.828,1.172 l 9.194,9.192 c 1.561,1.563 1.561,4.095 0,5.658 -1.563,1.561 -4.096,1.561 -5.659,0 l -9.191,-9.193 c -1.563,-1.562 -1.563,-4.094 0,-5.657 0.781,-0.781 1.805,-1.172 2.828,-1.172"
         style="fill:#5d495f;fill-opacity:1;fill-rule:nonzero;stroke:none;stroke-width:0.1"
         id="path34"
         inkscape:connector-curvature="0" />
      <path
         d="m 997.406,903.963 h -13 c -2.209,0 -4,-1.791 -4,-4 0,-2.209 1.791,-4 4,-4 h 13 c 2.209,0 4.004,1.791 4.004,4 0,2.209 -1.795,4 -4.004,4"
         style="fill:#5d495f;fill-opacity:1;fill-rule:nonzero;stroke:none;stroke-width:0.1"
         id="path36"
         inkscape:connector-curvature="0" />
      <path
         d="m 966.158,850.959 c -1.562,1.562 -4.094,1.562 -5.656,0 -1.563,-1.563 -1.563,-4.095 0,-5.657 l 9.191,-9.193 c 0.782,-0.78 1.805,-1.17 2.83,-1.17 1.024,0 2.047,0.39 2.829,1.17 1.561,1.563 1.561,4.095 0,5.658 l -9.194,9.192"
         style="fill:#5d495f;fill-opacity:1;fill-rule:nonzero;stroke:none;stroke-width:0.1"
         id="path38"
         inkscape:connector-curvature="0" />
      <path
         d="m 855.85,948.068 c 0.781,-0.781 1.804,-1.172 2.828,-1.172 1.024,0 2.048,0.391 2.829,1.172 1.561,1.562 1.561,4.094 0,5.657 l -9.193,9.192 c -1.562,1.562 -4.094,1.562 -5.657,0 -1.561,-1.562 -1.561,-4.095 0,-5.657 l 9.193,-9.192"
         style="fill:#5d495f;fill-opacity:1;fill-rule:nonzero;stroke:none;stroke-width:0.1"
         id="path40"
         inkscape:connector-curvature="0" />
      <path
         d="m 837.406,902.963 h -13 c -2.209,0 -4,-1.791 -4,-4 0,-2.209 1.791,-4 4,-4 h 13 c 2.209,0 4,1.791 4,4 0,2.209 -1.791,4 -4,4"
         style="fill:#5d495f;fill-opacity:1;fill-rule:nonzero;stroke:none;stroke-width:0.1"
         id="path42"
         inkscape:connector-curvature="0" />
      <path
         d="m 856.557,849.78 -9.193,-9.192 c -1.561,-1.563 -1.561,-4.095 0,-5.657 0.782,-0.781 1.805,-1.172 2.829,-1.172 1.024,0 2.047,0.391 2.828,1.172 l 9.193,9.192 c 1.561,1.563 1.561,4.095 0,5.657 -1.562,1.562 -4.095,1.562 -5.657,0"
         style="fill:#5d495f;fill-opacity:1;fill-rule:nonzero;stroke:none;stroke-width:0.1"
         id="path44"
         inkscape:connector-curvature="0" />
    </g>
  </g>
</svg>
